# xmcd CD database file
#
# Track frame offsets:
#	150
#	15468
#	28233
#	41160
#	57157
#	72027
#	85295
#	97435
#	111484
#	125520
#	138159
#	150304
#	162632
#	174178
#	187776
#	200927
#	213895
#	227352
#	240029
#	251876
#	265187
#	275721
#	289888
#	305296
#
# Disc length: 4441 seconds
#
# Revision: 0
# Processed by: cddbd v1.5.2PL0 Copyright (c) Steve Scherf et al.
# Submitted via: CDex 1.70beta2
#
DISCID=56115718
DTITLE=Bernard Etté und sein Orchester - Die Goldene Ära deutscher Tanzorchester (1926-40)
DYEAR=1900
DGENRE=Jazz
TTITLE0=I want to be kissed (Vox 8242, 1926)
TTITLE1=Go south (Vox 8257E, 1926)
TTITLE2=Bimbambulla (Vocals Otto Fassel, Vox 3004, 1929)
TTITLE3=In einer kleinen Konditorei (Vocals Oskar Karlsweis, Kristall 3004, 1929)
TTITLE4=Über's Meer grüß ich dich, Heimatland (Kristall 3052, 1930)
TTITLE5=My Dancing Lady (Gloria G.O.13329, 1934)
TTITLE6=Grau in Grau (Vocals Gert van Osten, Gloria G.O.13188, 1934)
TTITLE7=Türkischer Honig (Gloria G.O.13375, 1934)
TTITLE8=Ich bin ein armer kleiner Straßensänger (Glora G.O.13062, 1934)
TTITLE9=Können Sie schon fernseh'n (Vocals Erwin Hartung, Odeon O-31841, 1936)
TTITLE10=Gib acht auf dein Herz, Margarethe (Gloria G.O.13453, 1935)
TTITLE11=So süß wie du (Vocals Erwin Hartung, Gloria G.O.41073, 1936)
TTITLE12=Sommersprossen (Vocals Walter von Lennep, Gloria G.O.41103, 1937)
TTITLE13=Das große Glück gesucht (Vocals Wilfried Sommer, Gloria G.O.41131, 1937)
TTITLE14=Annelies (Vocals Erwin Hartung, Gloria G.O.41073, 1936)
TTITLE15=Alles was mit Liebe beginnt (Vocals Wilfried Sommer, Gloria G.O.41130, 1937)
TTITLE16=Ich geh' ins Wasser (Vocals Walter von Lennep, Gloria G.O.41103, 1937)
TTITLE17=Der Trocadero (Odeon O-31270, 1938)
TTITLE18=Ich bring dich um die Ecke - zum Autobus (Vocals Robert Dorsay, Odeon O-31401, 1938)
TTITLE19=Missouri-Melodie (Odeon O-31471, 1939)
TTITLE20=Manola (Vocals Fred Kassen Odeon O-31285, 1938)
TTITLE21=I wanna be discovered, Mr. Levis (Vocals Rella Schlauch, Telefunken A-10075, 1940)
TTITLE22=South of the Border (Vocals Peter Rebhuhn, Telefunken A-10075, 1940)
TTITLE23=Große Fantasie über das Lied ''Über die Prärie'' (Vocals Claire Bäuerle, Tempo 1606, 1940)
EXTD=
EXTT0=
EXTT1=
EXTT2=
EXTT3=
EXTT4=
EXTT5=
EXTT6=
EXTT7=
EXTT8=
EXTT9=
EXTT10=
EXTT11=
EXTT12=
EXTT13=
EXTT14=
EXTT15=
EXTT16=
EXTT17=
EXTT18=
EXTT19=
EXTT20=
EXTT21=
EXTT22=
EXTT23=
PLAYORDER=
